<svg width="16" height="20" viewBox="0 0 16 20" fill="none" xmlns="http://www.w3.org/2000/svg">
<path fill-rule="evenodd" clip-rule="evenodd" d="M1.10001 7.53399C1.10001 3.75299 4.04701 0.899994 8.00001 0.899994C11.953 0.899994 14.9 3.75299 14.9 7.53399C14.9 10.085 13.136 13.506 9.64501 17.906C9.44837 18.1538 9.19829 18.354 8.91344 18.4916C8.6286 18.6292 8.31635 18.7006 8.00001 18.7006C7.68367 18.7006 7.37141 18.6292 7.08657 18.4916C6.80172 18.354 6.55164 18.1538 6.35501 17.906C2.86501 13.506 1.10001 10.086 1.10001 7.53399Z" stroke="#9BA1AD" stroke-width="1.8"/>
<path fill-rule="evenodd" clip-rule="evenodd" d="M5.10001 7.79999C5.10014 7.03073 5.40585 6.29303 5.9499 5.74918C6.21928 5.47989 6.53907 5.26629 6.891 5.12059C7.24293 4.97489 7.62011 4.89993 8.00101 4.89999C8.38191 4.90006 8.75906 4.97515 9.11094 5.12097C9.46282 5.2668 9.78253 5.4805 10.0518 5.74988C10.3211 6.01927 10.5347 6.33905 10.6804 6.69098C10.8261 7.04291 10.9011 7.42009 10.901 7.80099C10.9009 8.57025 10.5952 9.30795 10.0511 9.85181C9.50707 10.3957 8.76927 10.7011 8.00001 10.701C7.23075 10.7009 6.49305 10.3951 5.94919 9.8511C5.40533 9.30706 5.09987 8.56925 5.10001 7.79999Z" stroke="#9BA1AD" stroke-width="1.8"/>
</svg>
