<svg width="13" height="17" viewBox="0 0 13 17" fill="none" xmlns="http://www.w3.org/2000/svg">
<path d="M10.9381 4V9.82231C10.5386 9.81829 10.1122 9.90002 9.69568 10.0768C8.42473 10.6163 7.7268 11.8367 8.13681 12.8026C8.54682 13.7686 9.90951 14.1142 11.1805 13.5748C12.1815 13.1498 12.827 12.3026 12.8558 11.4899C12.9082 11.507 12.9381 11.5116 12.9381 11.5V0L2.94388 2.95618V12C2.94388 12.0207 2.94474 12.0413 2.94642 12.0616C2.57507 12.051 2.17959 12.1126 1.78823 12.2551C0.490787 12.7273 -0.270057 13.9094 0.0888384 14.8955C0.447734 15.8816 1.79046 16.2981 3.08791 15.8259C4.25867 15.3998 4.99251 14.3955 4.86095 13.479C4.91016 13.493 4.93807 13.5 4.93807 13.5V6L10.9381 4Z" fill="#2A5885"/>
</svg>
