<svg width="17" height="16" viewBox="0 0 17 16" fill="none" xmlns="http://www.w3.org/2000/svg">
<path fill-rule="evenodd" clip-rule="evenodd" d="M6.60299 7.395C6.77499 7.812 7.20699 8.384 7.91299 9.089C8.61599 9.792 9.18799 10.225 9.60499 10.399L10.088 9.915C11.285 8.718 13.181 8.605 14.451 9.673L15.189 10.295C16.298 11.228 16.406 12.895 15.447 14.021C14.9506 14.5982 14.2522 14.9635 13.495 15.042C10.902 15.392 8.25199 14.168 5.54299 11.458C2.83499 8.75 1.60899 6.1 1.95299 3.555C1.97499 3.312 2.02299 3.083 2.09899 2.858C2.27256 2.35005 2.57881 1.89776 2.98599 1.548C4.10599 0.593999 5.77399 0.702999 6.70599 1.811L7.32599 2.549C8.39599 3.818 8.28399 5.715 7.08599 6.913L6.60299 7.395Z" stroke="#9BA1AD" stroke-width="1.8"/>
</svg>
