<svg width="16" height="13" viewBox="0 0 16 13" fill="none" xmlns="http://www.w3.org/2000/svg">
<path fill-rule="evenodd" clip-rule="evenodd" d="M14.4974 2.07562C15.3502 2.07562 16.0964 2.84033 15.9898 3.71428V11.3613C15.9898 12.2353 15.2436 13 14.3908 13H1.59898C0.746191 13 0 12.2353 0 11.3613V3.93277C0 3.05882 0.746191 2.07562 1.59898 2.07562H2.98477C3.30456 2.07562 3.51776 1.85714 3.62436 1.63866L4.15735 0.436981C4.26395 0.218493 4.58375 0 4.79695 0H11.2995C11.6193 0 11.8325 0.218493 11.9391 0.436981L12.4721 1.63866C12.5787 1.85714 12.8985 2.07562 13.1116 2.07562H14.4974ZM12 7C12 9.17143 10.1714 11 8 11C5.82857 11 4 9.17143 4 7C4 4.82857 5.82857 3 8 3C10.1714 3 12 4.82857 12 7ZM8 4.5C9.41304 4.5 10.5 5.58696 10.5 7C10.5 8.41304 9.41304 9.5 8 9.5C6.58696 9.5 5.5 8.41304 5.5 7C5.5 5.58696 6.58696 4.5 8 4.5Z" fill="#2A5885"/>
</svg>
