<svg width="18" height="18" viewBox="0 0 18 18" fill="none" xmlns="http://www.w3.org/2000/svg">
<path d="M8.99999 17L8.30697 17.5742C8.47795 17.7806 8.732 17.9 8.99999 17.9C9.26799 17.9 9.52204 17.7806 9.69302 17.5742L8.99999 17ZM8.99999 1.00001L9.69302 0.425803C9.52204 0.21944 9.26799 0.100009 8.99999 0.100009C8.732 0.100009 8.47795 0.21944 8.30697 0.425803L8.99999 1.00001ZM8.99999 1.80001C12.9764 1.80001 16.2 5.02356 16.2 9.00001H18C18 4.02945 13.9706 9.17912e-06 8.99999 9.17912e-06V1.80001ZM16.2 9.00001C16.2 12.9765 12.9764 16.2 8.99999 16.2V18C13.9706 18 18 13.9706 18 9.00001H16.2ZM8.99999 16.2C5.02354 16.2 1.79999 12.9765 1.79999 9.00001H-6.07967e-06C-6.07967e-06 13.9706 4.02943 18 8.99999 18V16.2ZM1.79999 9.00001C1.79999 5.02356 5.02354 1.80001 8.99999 1.80001V9.17912e-06C4.02943 9.17912e-06 -6.07967e-06 4.02945 -6.07967e-06 9.00001H1.79999ZM9.69302 16.4258C7.8923 14.2525 6.99999 11.788 6.99999 9.00001H5.19999C5.19999 12.212 6.24169 15.0816 8.30697 17.5742L9.69302 16.4258ZM6.99999 9.00001C6.99999 6.21201 7.8923 3.74757 9.69302 1.57422L8.30697 0.425803C6.24169 2.91845 5.19999 5.78801 5.19999 9.00001H6.99999ZM8.30697 1.57422C10.1077 3.74757 11 6.21201 11 9.00001H12.8C12.8 5.78801 11.7583 2.91845 9.69302 0.425803L8.30697 1.57422ZM11 9.00001C11 11.788 10.1077 14.2525 8.30697 16.4258L9.69302 17.5742C11.7583 15.0816 12.8 12.212 12.8 9.00001H11Z" fill="#9BA1AD"/>
</svg>
