<svg width="15" height="12" viewBox="0 0 15 12" fill="none" xmlns="http://www.w3.org/2000/svg">
<path fill-rule="evenodd" clip-rule="evenodd" d="M15 0.9C15 0.661824 14.9056 0.433359 14.7375 0.264662C14.5693 0.0959655 14.3412 0.00079392 14.103 0H1.89699C1.6583 0 1.42938 0.0948209 1.2606 0.263604C1.09182 0.432386 0.996994 0.661305 0.996994 0.9C0.996994 1.1387 1.09182 1.36761 1.2606 1.5364C1.42938 1.70518 1.6583 1.8 1.89699 1.8H14.103C14.598 1.8 15 1.4 15 0.9ZM15 6C15 5.76182 14.9056 5.53336 14.7375 5.36466C14.5693 5.19597 14.3412 5.10079 14.103 5.1H1.89699C1.6583 5.1 1.42938 5.19482 1.2606 5.3636C1.09182 5.53239 0.996994 5.76131 0.996994 6C0.996994 6.23869 1.09182 6.46761 1.2606 6.6364C1.42938 6.80518 1.6583 6.9 1.89699 6.9H14.103C14.598 6.9 15 6.5 15 6ZM0.999994 11.1C0.999994 11.597 1.40999 12 1.89599 12H9.10399C9.59899 12 9.99999 11.6 9.99999 11.1C9.99999 10.603 9.58999 10.2 9.10399 10.2H1.89599C1.40099 10.2 0.999994 10.6 0.999994 11.1Z" fill="#9BA1AD"/>
</svg>
